<svg width="36" height="35" viewBox="0 0 36 35" fill="none" xmlns="http://www.w3.org/2000/svg">
<g clip-path="url(#clip0)">
<path d="M24.5611 0C22.6951 0.129062 20.5142 1.32343 19.2433 2.87873C18.0839 4.28966 17.1302 6.38528 17.5021 8.42183C19.5408 8.48526 21.6473 7.26246 22.868 5.6809C24.0098 4.20873 24.8739 2.12624 24.5611 0Z" fill="black"/>
<path d="M31.935 11.7425C30.1435 9.49591 27.6257 8.19217 25.2479 8.19217C22.1088 8.19217 20.781 9.69497 18.6001 9.69497C16.3513 9.69497 14.6429 8.19654 11.9282 8.19654C9.2617 8.19654 6.42234 9.82622 4.62204 12.6131C2.09112 16.5374 2.52424 23.9158 6.62578 30.2005C8.09358 32.4492 10.0536 34.9779 12.6173 34.9998C14.8989 35.0217 15.542 33.5364 18.6329 33.5211C21.7238 33.5036 22.3101 35.0195 24.5872 34.9954C27.1532 34.9758 29.2203 32.1736 30.6881 29.9249C31.7403 28.3127 32.1319 27.5011 32.9478 25.6811C27.0132 23.4215 26.0616 14.9821 31.935 11.7425Z" fill="black"/>
</g>
<defs>
<clipPath id="clip0">
<rect width="35" height="35" fill="white" transform="translate(0.5)"/>
</clipPath>
</defs>
</svg>
