<svg width="32" height="32" viewBox="0 0 32 32" fill="none" xmlns="http://www.w3.org/2000/svg">
<g clip-path="url(#clip0_414_6937)">
<path d="M31.0625 0.990234H19.7913C18.4256 0.990234 17.1057 1.41073 16 2.18692C14.8943 1.41067 13.5744 0.990234 12.2087 0.990234H0.9375C0.41975 0.990234 0 1.40998 0 1.92773V28.6165C0 29.1342 0.41975 29.554 0.9375 29.554H12.2087C13.3792 29.554 14.5029 29.9854 15.3726 30.7688C15.5509 30.9294 15.7754 31.0097 16 31.0097C16.2246 31.0097 16.4491 30.9294 16.6274 30.7688C17.4972 29.9854 18.6208 29.554 19.7913 29.554H31.0625C31.5803 29.554 32 29.1342 32 28.6165V1.92773C32 1.40998 31.5803 0.990234 31.0625 0.990234V0.990234ZM30.125 2.86523V23.4912H19.7913C18.7936 23.4912 17.8207 23.7166 16.9375 24.1401V3.82448C17.7565 3.20373 18.7553 2.86523 19.7913 2.86523H30.125ZM1.875 2.86523H12.2087C13.2447 2.86523 14.2435 3.20373 15.0625 3.82448V24.1402C14.1793 23.7165 13.2064 23.4912 12.2087 23.4912H1.875V2.86523ZM19.7913 27.6789C18.4256 27.6789 17.1057 28.0994 16 28.8756C14.8943 28.0994 13.5744 27.6789 12.2087 27.6789H1.875V25.3662H12.2087C13.3792 25.3662 14.5029 25.7976 15.3726 26.581C15.5509 26.7416 15.7754 26.8219 16 26.8219C16.2246 26.8219 16.4491 26.7415 16.6274 26.581C17.4972 25.7976 18.6208 25.3662 19.7913 25.3662H30.125V27.6789H19.7913Z" fill="#00A2FF"/>
<path d="M5.20941 8.49023H11.7282C12.2459 8.49023 12.6657 8.07048 12.6657 7.55273C12.6657 7.03498 12.2459 6.61523 11.7282 6.61523H5.20941C4.69166 6.61523 4.27191 7.03498 4.27191 7.55273C4.27191 8.07048 4.6916 8.49023 5.20941 8.49023V8.49023Z" fill="#00A2FF"/>
<path d="M5.20941 12.2402H11.7282C12.2459 12.2402 12.6657 11.8205 12.6657 11.3027C12.6657 10.785 12.2459 10.3652 11.7282 10.3652H5.20941C4.69166 10.3652 4.27191 10.785 4.27191 11.3027C4.27191 11.8205 4.6916 12.2402 5.20941 12.2402V12.2402Z" fill="#00A2FF"/>
<path d="M5.20941 15.9902H11.7282C12.2459 15.9902 12.6657 15.5705 12.6657 15.0527C12.6657 14.535 12.2459 14.1152 11.7282 14.1152H5.20941C4.69166 14.1152 4.27191 14.535 4.27191 15.0527C4.27191 15.5705 4.6916 15.9902 5.20941 15.9902V15.9902Z" fill="#00A2FF"/>
<path d="M12.6657 18.8027C12.6657 18.285 12.2459 17.8652 11.7282 17.8652H5.20941C4.69166 17.8652 4.27191 18.285 4.27191 18.8027C4.27191 19.3205 4.69166 19.7402 5.20941 19.7402H11.7282C12.246 19.7402 12.6657 19.3205 12.6657 18.8027Z" fill="#00A2FF"/>
<path d="M20.272 8.49023H26.7907C27.3085 8.49023 27.7282 8.07048 27.7282 7.55273C27.7282 7.03498 27.3085 6.61523 26.7907 6.61523H20.272C19.7542 6.61523 19.3345 7.03498 19.3345 7.55273C19.3345 8.07048 19.7542 8.49023 20.272 8.49023Z" fill="#00A2FF"/>
<path d="M20.272 12.2402H26.7907C27.3085 12.2402 27.7282 11.8205 27.7282 11.3027C27.7282 10.785 27.3085 10.3652 26.7907 10.3652H20.272C19.7542 10.3652 19.3345 10.785 19.3345 11.3027C19.3345 11.8205 19.7542 12.2402 20.272 12.2402Z" fill="#00A2FF"/>
<path d="M20.272 19.7405H26.7907C27.3085 19.7405 27.7282 19.3207 27.7282 18.803V15.0527C27.7282 14.535 27.3085 14.1152 26.7907 14.1152H20.272C19.7542 14.1152 19.3345 14.535 19.3345 15.0527V18.803C19.3345 19.3208 19.7542 19.7405 20.272 19.7405ZM21.2095 15.9903H25.8533V17.8655H21.2095V15.9903Z" fill="#00A2FF"/>
</g>
<defs>
<clipPath id="clip0_414_6937">
<rect width="32" height="32" fill="white"/>
</clipPath>
</defs>
</svg>
