<svg width="17" height="18" viewBox="0 0 17 18" fill="none" xmlns="http://www.w3.org/2000/svg">
<path d="M6.79014 3.51181H9.99014C9.99014 2.59583 9.27382 1.85328 8.39014 1.85328C7.50646 1.85328 6.79014 2.59583 6.79014 3.51181ZM5.59014 3.51181C5.59014 1.90884 6.84374 0.609375 8.39014 0.609375C9.93654 0.609375 11.1901 1.90884 11.1901 3.51181H15.7901C16.1215 3.51181 16.3901 3.79027 16.3901 4.13377C16.3901 4.47726 16.1215 4.75572 15.7901 4.75572H14.7349L13.7973 14.7992C13.6485 16.3932 12.3561 17.6094 10.8112 17.6094H5.96909C4.42417 17.6094 3.13186 16.3932 2.98304 14.7992L2.0454 4.75572H0.990137C0.658769 4.75572 0.390137 4.47726 0.390137 4.13377C0.390137 3.79027 0.658769 3.51181 0.990137 3.51181H5.59014ZM7.19014 7.45084C7.19014 7.10735 6.9215 6.82889 6.59014 6.82889C6.25877 6.82889 5.99014 7.10735 5.99014 7.45084V13.6704C5.99014 14.0138 6.25877 14.2923 6.59014 14.2923C6.9215 14.2923 7.19014 14.0138 7.19014 13.6704V7.45084ZM10.1901 6.82889C10.5215 6.82889 10.7901 7.10735 10.7901 7.45084V13.6704C10.7901 14.0138 10.5215 14.2923 10.1901 14.2923C9.85878 14.2923 9.59014 14.0138 9.59014 13.6704V7.45084C9.59014 7.10735 9.85878 6.82889 10.1901 6.82889ZM4.17746 14.6793C4.26675 15.6357 5.04214 16.3655 5.96909 16.3655H10.8112C11.7381 16.3655 12.5135 15.6357 12.6028 14.6793L13.5293 4.75572H3.251L4.17746 14.6793Z" fill="#FCFCFC"/>
</svg>
