<svg width="17" height="20" viewBox="0 0 17 20" fill="none" xmlns="http://www.w3.org/2000/svg">
<path d="M13.5 0H1.5C1.23478 0 0.98043 0.105357 0.792893 0.292893C0.605357 0.48043 0.5 0.734784 0.5 1V17C0.5 17.2652 0.605357 17.5196 0.792893 17.7071C0.98043 17.8946 1.23478 18 1.5 18H2.5V19C2.5 19.2652 2.60536 19.5196 2.79289 19.7071C2.98043 19.8946 3.23478 20 3.5 20C3.76522 20 4.01957 19.8946 4.20711 19.7071C4.39464 19.5196 4.5 19.2652 4.5 19V18H13.5C14.2956 18 15.0587 17.6839 15.6213 17.1213C16.1839 16.5587 16.5 15.7956 16.5 15V3C16.5 2.20435 16.1839 1.44129 15.6213 0.87868C15.0587 0.316071 14.2956 0 13.5 0ZM10.5 16H2.5V2H10.5V16ZM14.5 15C14.5 15.2652 14.3946 15.5196 14.2071 15.7071C14.0196 15.8946 13.7652 16 13.5 16H12.5V2H13.5C13.7652 2 14.0196 2.10536 14.2071 2.29289C14.3946 2.48043 14.5 2.73478 14.5 3V15Z" fill="#BDBDBD"/>
</svg>
