<svg width="17" height="16" viewBox="0 0 17 16" fill="none" xmlns="http://www.w3.org/2000/svg">
<path d="M7.65799 2.41058H4.75886C3.59909 2.41058 3.01921 2.41058 2.57624 2.63628C2.18659 2.83482 1.8698 3.15161 1.67126 3.54126C1.44556 3.98423 1.44556 4.56411 1.44556 5.72387V11.5221C1.44556 12.6819 1.44556 13.2618 1.67126 13.7048C1.8698 14.0944 2.18659 14.4112 2.57624 14.6097C3.01921 14.8354 3.59909 14.8354 4.75886 14.8354H10.5571C11.7169 14.8354 12.2968 14.8354 12.7397 14.6097C13.1294 14.4112 13.4462 14.0944 13.6447 13.7048C13.8704 13.2618 13.8704 12.6819 13.8704 11.5221V8.62301M5.58716 10.6938H6.74305C7.08072 10.6938 7.24955 10.6938 7.40844 10.6557C7.5493 10.6219 7.68397 10.5661 7.80749 10.4904C7.94681 10.405 8.06619 10.2856 8.30496 10.0469L14.9058 3.44598C15.4777 2.87414 15.4777 1.94701 14.9058 1.37517C14.334 0.80333 13.4069 0.803329 12.835 1.37517L6.23413 7.97605C5.99536 8.21482 5.87598 8.3342 5.7906 8.47352C5.71491 8.59704 5.65913 8.73171 5.62531 8.87257C5.58716 9.03145 5.58716 9.20029 5.58716 9.53796V10.6938Z" stroke="#FCFCFC" stroke-width="1.38054" stroke-linecap="round" stroke-linejoin="round"/>
</svg>
