<svg width="23" height="22" viewBox="0 0 23 22" fill="none" xmlns="http://www.w3.org/2000/svg">
<g clip-path="url(#clip0_414_6903)">
<path d="M6.98828 10.957V10.5273C6.98828 8.97703 7.95968 7.65011 9.32539 7.12095C8.93902 6.64177 8.70703 6.03316 8.70703 5.37109C8.70703 3.83105 9.95996 2.57812 11.5 2.57812C13.04 2.57812 14.293 3.83105 14.293 5.37109C14.293 6.03316 14.061 6.64177 13.6746 7.12095C15.0403 7.65011 16.0117 8.97703 16.0117 10.5273V10.957C16.0117 11.313 15.7231 11.6016 15.3672 11.6016H7.63281C7.27686 11.6016 6.98828 11.313 6.98828 10.957ZM11.5 3.86719C10.6707 3.86719 9.99609 4.54184 9.99609 5.37109C9.99609 6.20035 10.6707 6.875 11.5 6.875C12.3293 6.875 13.0039 6.20035 13.0039 5.37109C13.0039 4.54184 12.3293 3.86719 11.5 3.86719ZM14.713 10.3125C14.6041 9.10963 13.5901 8.16406 12.3594 8.16406H10.6406C9.40987 8.16406 8.39585 9.10963 8.28701 10.3125H14.713Z" fill="white"/>
<path d="M9.13672 13.5352C9.13672 13.1792 9.4253 12.8906 9.78125 12.8906H13.2188C13.5747 12.8906 13.8633 13.1792 13.8633 13.5352C13.8633 13.8911 13.5747 14.1797 13.2188 14.1797H9.78125C9.4253 14.1797 9.13672 13.8911 9.13672 13.5352Z" fill="white"/>
<path d="M0.731773 10.5872L4.41016 6.90882V4.29688H2.47656C2.12061 4.29688 1.83203 4.0083 1.83203 3.65234V1.93359C1.83203 0.86741 2.69944 0 3.76562 0H16.6562C17.7224 0 18.5898 0.86741 18.5898 1.93359V6.90882L22.2682 10.5872C22.3891 10.7081 22.457 10.872 22.457 11.043V21.3555C22.457 21.7114 22.1685 22 21.8125 22H1.1875C0.831547 22 0.542969 21.7114 0.542969 21.3555V11.043C0.542969 10.872 0.610903 10.7081 0.731773 10.5872ZM4.41016 1.93359C4.41016 1.5782 4.12102 1.28906 3.76562 1.28906C3.41023 1.28906 3.12109 1.5782 3.12109 1.93359V3.00781H4.41016V1.93359ZM4.41016 8.73181L2.23448 10.9075L4.41016 12.1767V8.73181ZM17.3008 1.93359C17.3008 1.5782 17.0116 1.28906 16.6562 1.28906H5.58836C5.6599 1.4908 5.69922 1.70762 5.69922 1.93359V12.9286L10.2011 15.5547H12.7989L17.3008 12.9286V1.93359ZM18.5898 8.73181V12.1767L20.7655 10.9075L18.5898 8.73181ZM21.168 12.1651L14.2524 16.1992L21.168 20.2333V12.1651ZM19.4284 20.7109L12.799 16.8438H10.2011L3.57162 20.7109H19.4284ZM1.83203 20.2333L8.74759 16.1992L1.83203 12.1651V20.2333Z" fill="white"/>
</g>
<defs>
<clipPath id="clip0_414_6903">
<rect width="22" height="22" fill="white" transform="matrix(-1 0 0 1 22.5 0)"/>
</clipPath>
</defs>
</svg>
