<svg width="32" height="32" viewBox="0 0 32 32" fill="none" xmlns="http://www.w3.org/2000/svg">
<g clip-path="url(#clip0_414_6952)">
<path d="M31.622 18.2733C30.8461 16.9309 29.1237 16.469 27.7823 17.2437C26.4659 18.0039 24.5949 19.0843 23.1311 19.9294C22.9224 18.8101 22.0416 17.8842 20.8542 17.6748L14.1557 16.4937C12.3468 16.1748 10.4834 16.5033 8.89275 17.4217L5.003 19.6674L4.49225 18.7828C4.23337 18.3344 3.66 18.1808 3.21163 18.4397L0.46875 20.0233C0.178688 20.1908 0 20.5002 0 20.8351V31.0625C0 31.5803 0.41975 32 0.9375 32H8.22325C8.38781 32 8.5495 31.9567 8.692 31.8744L10.3991 30.8888C10.8475 30.6299 11.0012 30.0566 10.7423 29.6082L10.2734 28.7962L11.9482 27.8293L18.6879 27.8594C19.9591 27.8651 21.2129 27.5321 22.3137 26.8966L30.5933 22.1164C31.939 21.3394 32.3996 19.6185 31.622 18.2733ZM7.972 30.125H1.875V21.3764L3.33725 20.5323L8.64956 29.7338L8.64969 29.7337V29.7338L7.972 30.125ZM29.6558 20.4926L21.3762 25.2728C20.5626 25.7426 19.6358 25.9886 18.6963 25.9844L11.7033 25.9531C11.5373 25.9524 11.3741 25.9958 11.2304 26.0787L9.336 27.1724L5.9405 21.2913L9.83031 19.0455C11.0372 18.3488 12.4576 18.0982 13.8301 18.3403L20.5026 19.5168C20.9996 19.6044 21.36 20.0619 21.2959 20.5625C21.2274 21.0971 20.7277 21.4603 20.2031 21.3678L14.2421 20.3163C13.7321 20.2265 13.246 20.5668 13.1561 21.0767C13.0661 21.5866 13.4066 22.0728 13.9164 22.1628L19.8773 23.2143C20.5694 23.3363 21.2465 23.1934 21.806 22.8594L21.8061 22.8596C21.8061 22.8596 26.2446 20.297 28.7201 18.8674C29.1664 18.6096 29.74 18.7639 29.9987 19.2116C30.2579 19.66 30.1043 20.2336 29.6558 20.4926V20.4926Z" fill="#00A2FF"/>
<path d="M12.3125 14.5H24.8125C25.3303 14.5 25.75 14.0803 25.75 13.5625V13.4375C25.75 10.9231 24.1789 8.76902 21.9669 7.90471C22.8086 7.01452 23.3071 5.79665 23.2447 4.46421C23.1331 2.0744 21.2049 0.133149 18.8158 0.00671155C16.1166 -0.136101 13.875 2.0189 13.875 4.68752C13.875 5.93234 14.3637 7.06452 15.1581 7.90471C12.9461 8.76902 11.375 10.9231 11.375 13.4375V13.5625C11.375 14.0803 11.7947 14.5 12.3125 14.5V14.5ZM18.5625 1.87502C20.1133 1.87502 21.375 3.13671 21.375 4.68752C21.375 6.23834 20.1133 7.50002 18.5625 7.50002C17.0117 7.50002 15.75 6.23834 15.75 4.68752C15.75 3.13671 17.0117 1.87502 18.5625 1.87502ZM17.3125 9.37502H19.8125C21.7744 9.37502 23.4159 10.773 23.7934 12.625H13.3316C13.7091 10.773 15.3506 9.37502 17.3125 9.37502Z" fill="#00A2FF"/>
</g>
<defs>
<clipPath id="clip0_414_6952">
<rect width="32" height="32" fill="white"/>
</clipPath>
</defs>
</svg>
