<svg width="25" height="25" viewBox="0 0 25 25" fill="none" xmlns="http://www.w3.org/2000/svg">
<g clip-path="url(#clip0_118_266)">
<path d="M6.6104 9.57031H4.17041V11.2382H6.6104V9.57031Z" fill="#00A2FF"/>
<path d="M10.1255 9.57031H7.68555V11.2382H10.1255V9.57031Z" fill="#00A2FF"/>
<path d="M13.6205 9.57031H11.1807V11.2382H13.6205V9.57031Z" fill="#00A2FF"/>
<path d="M17.1345 9.57031H14.6948V11.2382H17.1345V9.57031Z" fill="#00A2FF"/>
<path d="M20.6136 9.57031H18.1733V11.2382H20.6136V9.57031Z" fill="#00A2FF"/>
<path d="M6.62339 12.7029H4.18359V14.3708H6.62339V12.7029Z" fill="#00A2FF"/>
<path d="M10.1385 12.7029H7.69873V14.3708H10.1385V12.7029Z" fill="#00A2FF"/>
<path d="M13.6332 12.7029H11.1934V14.3708H13.6332V12.7029Z" fill="#00A2FF"/>
<path d="M17.1472 12.7029H14.7075V14.3708H17.1472V12.7029Z" fill="#00A2FF"/>
<path d="M20.6257 12.7029H18.186V14.3708H20.6257V12.7029Z" fill="#00A2FF"/>
<path d="M6.63188 15.6519H4.19189V17.3197H6.63188V15.6519Z" fill="#00A2FF"/>
<path d="M10.1465 15.6519H7.70654V17.3197H10.1465V15.6519Z" fill="#00A2FF"/>
<path d="M13.6409 15.6519H11.2012V17.3197H13.6409V15.6519Z" fill="#00A2FF"/>
<path d="M17.1566 15.6519H14.7163V17.3197H17.1566V15.6519Z" fill="#00A2FF"/>
<path d="M20.6345 15.6519H18.1943V17.3197H20.6345V15.6519Z" fill="#00A2FF"/>
<path d="M20.2898 5.11742V4.30396H18.7511V5.11742H15.8565V4.30396H14.3178V5.11742H11.1763V4.30396H9.63753V5.11742H6.23967V4.30396H4.70093V5.11742H0.512207V21.1014H24.5122V5.11742H20.2898ZM22.9731 19.5627H2.05085V6.65616H4.70152V7.63789H6.24026V6.65616H9.63822V7.63789H11.177V6.65616H14.3185V7.63789H15.8572V6.65616H18.7513V7.63789H20.29V6.65616H22.9738V19.5627H22.9731Z" fill="#00A2FF"/>
</g>
<defs>
<clipPath id="clip0_118_266">
<rect width="24" height="24" fill="white" transform="translate(0.512207 0.703125)"/>
</clipPath>
</defs>
</svg>
