<svg width="21" height="19" viewBox="0 0 21 19" fill="none" xmlns="http://www.w3.org/2000/svg">
<path d="M17.3878 9.5V17.5487H3.48779V9.5" stroke="#FFD700" stroke-width="2" stroke-linecap="round" stroke-linejoin="round"/>
<path d="M1.75 5.47534H19.125V9.4997H1.75V5.47534Z" stroke="#FFD700" stroke-width="2" stroke-linecap="round" stroke-linejoin="round"/>
<path d="M10.4375 17.5484V5.47534" stroke="#FFD700" stroke-width="2" stroke-linecap="round" stroke-linejoin="round"/>
<path d="M10.4372 5.47553H6.52783C5.95181 5.47553 5.39939 5.26353 4.99208 4.88617C4.58478 4.50882 4.35596 3.99701 4.35596 3.46335C4.35596 2.92969 4.58478 2.41788 4.99208 2.04053C5.39939 1.66317 5.95181 1.45117 6.52783 1.45117C9.56846 1.45117 10.4372 5.47553 10.4372 5.47553Z" stroke="#FFD700" stroke-width="2" stroke-linecap="round" stroke-linejoin="round"/>
<path d="M10.4375 5.47553H14.3469C14.9229 5.47553 15.4753 5.26353 15.8826 4.88617C16.2899 4.50882 16.5188 3.99701 16.5188 3.46335C16.5188 2.92969 16.2899 2.41788 15.8826 2.04053C15.4753 1.66317 14.9229 1.45117 14.3469 1.45117C11.3063 1.45117 10.4375 5.47553 10.4375 5.47553Z" stroke="#FFD700" stroke-width="2" stroke-linecap="round" stroke-linejoin="round"/>
</svg>
