<svg width="36" height="35" viewBox="0 0 36 35" fill="none" xmlns="http://www.w3.org/2000/svg">
<g clip-path="url(#clip0)">
<path d="M8.25674 21.151L7.03844 25.699L2.58558 25.7932C1.25482 23.325 0.5 20.501 0.5 17.5C0.5 14.5981 1.20574 11.8615 2.45672 9.45193H2.45768L6.42197 10.1787L8.15857 14.1192C7.79511 15.1789 7.597 16.3164 7.597 17.5C7.59714 18.7846 7.82983 20.0154 8.25674 21.151Z" fill="#FBBB00"/>
<path d="M35.1943 14.2308C35.3952 15.2894 35.5 16.3827 35.5 17.5C35.5 18.7529 35.3683 19.975 35.1174 21.1539C34.2655 25.1654 32.0395 28.6683 28.9559 31.1471L28.9549 31.1462L23.9617 30.8914L23.255 26.4798C25.3011 25.2798 26.9002 23.4019 27.7425 21.1539H18.3848V14.2308H27.879H35.1943Z" fill="#518EF8"/>
<path d="M28.9549 31.1462L28.9559 31.1472C25.9569 33.5577 22.1472 35.0001 18.0001 35.0001C11.3357 35.0001 5.54148 31.2751 2.58569 25.7933L8.25686 21.1511C9.73472 25.0953 13.5395 27.903 18.0001 27.903C19.9174 27.903 21.7136 27.3847 23.2549 26.4799L28.9549 31.1462Z" fill="#28B446"/>
<path d="M29.1703 4.02883L23.501 8.67016C21.9059 7.67307 20.0202 7.09707 18.0001 7.09707C13.4385 7.09707 9.56254 10.0336 8.15871 14.1192L2.45774 9.45191H2.45679C5.36931 3.83653 11.2366 0 18.0001 0C22.2462 0 26.1395 1.51252 29.1703 4.02883Z" fill="#F14336"/>
</g>
<defs>
<clipPath id="clip0">
<rect width="35" height="35" fill="white" transform="translate(0.5)"/>
</clipPath>
</defs>
</svg>
