<svg width="36" height="36" viewBox="0 0 36 36" fill="none" xmlns="http://www.w3.org/2000/svg">
<path d="M11.6816 14.8185L14.8061 17.943L14.8166 17.934L16.9946 20.112L17.0036 20.121L20.1866 23.304C21.2356 24.3527 22.5719 25.0668 24.0268 25.356C25.4816 25.6453 26.9895 25.4966 28.3598 24.9289C29.7301 24.3612 30.9013 23.3999 31.7254 22.1666C32.5494 20.9332 32.9892 19.4833 32.9892 18C32.9892 16.5167 32.5494 15.0668 31.7254 13.8334C30.9013 12.6001 29.7301 11.6388 28.3598 11.0711C26.9895 10.5034 25.4816 10.3547 24.0268 10.644C22.5719 10.9332 21.2356 11.6473 20.1866 12.696L19.1156 13.767L21.2381 15.888L22.3076 14.8185C22.9369 14.189 23.7387 13.7603 24.6117 13.5866C25.4846 13.4128 26.3895 13.5019 27.2118 13.8424C28.0342 14.183 28.7371 14.7597 29.2316 15.4998C29.7261 16.2398 29.9901 17.1099 29.9901 18C29.9901 18.8901 29.7261 19.7602 29.2316 20.5002C28.7371 21.2403 28.0342 21.817 27.2118 22.1576C26.3895 22.4981 25.4846 22.5872 24.6117 22.4134C23.7387 22.2397 22.9369 21.811 22.3076 21.1815L19.1996 18.0735L19.1891 18.0825L13.8041 12.6975C12.7553 11.6484 11.4189 10.9339 9.96401 10.6443C8.50909 10.3547 7.00098 10.5031 5.6304 11.0707C4.25982 11.6383 3.08835 12.5996 2.26414 13.833C1.43992 15.0664 1 16.5165 1 18C1 19.4835 1.43992 20.9336 2.26414 22.167C3.08835 23.4004 4.25982 24.3617 5.6304 24.9293C7.00098 25.4969 8.50909 25.6453 9.96401 25.3557C11.4189 25.0662 12.7553 24.3516 13.8041 23.3025L14.8736 22.233L12.7526 20.112L11.6816 21.1815C11.0523 21.811 10.2505 22.2397 9.37755 22.4134C8.50459 22.5872 7.59973 22.4981 6.77738 22.1576C5.95503 21.817 5.25215 21.2403 4.75762 20.5002C4.2631 19.7602 3.99914 18.8901 3.99914 18C3.99914 17.1099 4.2631 16.2398 4.75762 15.4998C5.25215 14.7597 5.95503 14.183 6.77738 13.8424C7.59973 13.5019 8.50459 13.4128 9.37755 13.5866C10.2505 13.7603 11.0523 14.189 11.6816 14.8185V14.8185Z" fill="#00A2FF"/>
</svg>
