<svg width="73" height="92" viewBox="0 0 73 92" fill="none" xmlns="http://www.w3.org/2000/svg">
<path d="M54.25 27.6V28.1H54.75H62.7344C68.1237 28.1 72.5 32.5061 72.5 37.95V81.65C72.5 87.0937 68.1237 91.5 62.7344 91.5H10.2656C4.87608 91.5 0.5 87.0937 0.5 81.65V37.95C0.5 32.5061 4.87607 28.1 10.2656 28.1H18.25H18.75V27.6V18.4C18.75 8.51023 26.7008 0.5 36.5 0.5C46.299 0.5 54.25 8.51023 54.25 18.4V27.6ZM24.5938 27.6V28.1H25.0938H47.9062H48.4062V27.6V18.4C48.4062 11.7765 43.0794 6.4 36.5 6.4C29.9206 6.4 24.5938 11.7765 24.5938 18.4V27.6ZM10.2656 34C8.0958 34 6.34375 35.7724 6.34375 37.95V81.65C6.34375 83.8276 8.09579 85.6 10.2656 85.6H62.7344C64.9042 85.6 66.6562 83.8276 66.6562 81.65V37.95C66.6562 35.7724 64.9042 34 62.7344 34H10.2656ZM36.5005 53.4C40.0005 53.4 42.8442 56.2616 42.8442 59.8C42.8442 63.3384 40.0005 66.2 36.5005 66.2C33.0009 66.2 30.1567 63.3384 30.1567 59.8C30.1567 56.2616 33.0009 53.4 36.5005 53.4Z" fill="#F9F9F9" stroke="#F9F9F9"/>
</svg>
