<svg width="19" height="6" viewBox="0 0 19 6" fill="none" xmlns="http://www.w3.org/2000/svg">
<path d="M9.50105 0.800049C9.21201 0.800049 8.9258 0.856979 8.65876 0.96759C8.39172 1.0782 8.14909 1.24033 7.94471 1.44471C7.74032 1.64909 7.5782 1.89172 7.46759 2.15876C7.35698 2.4258 7.30005 2.71201 7.30005 3.00105C7.30005 3.29009 7.35698 3.5763 7.46759 3.84334C7.5782 4.11037 7.74032 4.35301 7.94471 4.55739C8.14909 4.76177 8.39172 4.9239 8.65876 5.03451C8.9258 5.14512 9.21201 5.20205 9.50105 5.20205C10.0848 5.20192 10.6446 4.9699 11.0572 4.55704C11.4699 4.14418 11.7017 3.58429 11.7015 3.00055C11.7014 2.41681 11.4694 1.85703 11.0565 1.44435C10.6437 1.03168 10.0838 0.799916 9.50005 0.800049H9.50105ZM2.50105 0.800049C2.21201 0.800049 1.9258 0.856979 1.65876 0.96759C1.39173 1.0782 1.14909 1.24033 0.944707 1.44471C0.740325 1.64909 0.578201 1.89172 0.46759 2.15876C0.356979 2.4258 0.300049 2.71201 0.300049 3.00105C0.300049 3.29009 0.356979 3.5763 0.46759 3.84334C0.578201 4.11037 0.740325 4.35301 0.944707 4.55739C1.14909 4.76177 1.39173 4.9239 1.65876 5.03451C1.9258 5.14512 2.21201 5.20205 2.50105 5.20205C3.08479 5.20192 3.64457 4.9699 4.05724 4.55704C4.46992 4.14418 4.70168 3.58429 4.70155 3.00055C4.70142 2.41681 4.4694 1.85703 4.05654 1.44435C3.64368 1.03168 3.08379 0.799916 2.50005 0.800049H2.50105ZM16.501 0.800049C16.212 0.800049 15.9258 0.856979 15.6588 0.96759C15.3917 1.0782 15.1491 1.24033 14.9447 1.44471C14.7403 1.64909 14.5782 1.89172 14.4676 2.15876C14.357 2.4258 14.3 2.71201 14.3 3.00105C14.3 3.29009 14.357 3.5763 14.4676 3.84334C14.5782 4.11037 14.7403 4.35301 14.9447 4.55739C15.1491 4.76177 15.3917 4.9239 15.6588 5.03451C15.9258 5.14512 16.212 5.20205 16.501 5.20205C17.0848 5.20192 17.6446 4.9699 18.0572 4.55704C18.4699 4.14418 18.7017 3.58429 18.7015 3.00055C18.7014 2.41681 18.4694 1.85703 18.0565 1.44435C17.6437 1.03168 17.0838 0.799916 16.5 0.800049H16.501Z" fill="#BDBDBD"/>
</svg>
