<svg width="25" height="25" viewBox="0 0 25 25" fill="none" xmlns="http://www.w3.org/2000/svg">
<path d="M4.22364 12.6177H9.75437C10.186 12.6177 10.5359 12.2897 10.5359 11.885C10.5359 11.4804 10.186 11.1523 9.75437 11.1523H4.22364C3.79204 11.1523 3.44214 11.4804 3.44214 11.885C3.44214 12.2897 3.79204 12.6177 4.22364 12.6177Z" fill="#00A2FF"/>
<path d="M13.1533 9.68414H15.6931C16.1247 9.68414 16.4746 9.35609 16.4746 8.95145C16.4746 8.5468 16.1247 8.21875 15.6931 8.21875H13.1533C12.7217 8.21875 12.3718 8.5468 12.3718 8.95145C12.3718 9.35609 12.7217 9.68414 13.1533 9.68414Z" fill="#00A2FF"/>
<path d="M4.22364 9.69195H9.75437C10.186 9.69195 10.5359 9.3639 10.5359 8.95926C10.5359 8.55461 10.186 8.22656 9.75437 8.22656H4.22364C3.79204 8.22656 3.44214 8.55461 3.44214 8.95926C3.44214 9.3639 3.79204 9.69195 4.22364 9.69195Z" fill="#00A2FF"/>
<path d="M15.6847 19.8818H4.22364C3.79204 19.8818 3.44214 20.2099 3.44214 20.6145C3.44214 21.0192 3.79204 21.3472 4.22364 21.3472H15.6847C16.1162 21.3472 16.4662 21.0192 16.4662 20.6145C16.4662 20.2099 16.1163 19.8818 15.6847 19.8818V19.8818Z" fill="#00A2FF"/>
<path d="M4.22364 18.4371H9.75437C10.186 18.4371 10.5359 18.109 10.5359 17.7044C10.5359 17.2997 10.186 16.9717 9.75437 16.9717H4.22364C3.79204 16.9717 3.44214 17.2997 3.44214 17.7044C3.44214 18.109 3.79204 18.4371 4.22364 18.4371Z" fill="#00A2FF"/>
<path d="M4.22364 15.5064H9.75437C10.186 15.5064 10.5359 15.1784 10.5359 14.7737C10.5359 14.3691 10.186 14.041 9.75437 14.041H4.22364C3.79204 14.041 3.44214 14.3691 3.44214 14.7737C3.44214 15.1784 3.79204 15.5064 4.22364 15.5064Z" fill="#00A2FF"/>
<path d="M24.8949 14.4067C23.8425 12.7022 21.9702 11.5823 19.9044 11.3856V0.732697C19.9044 0.328053 19.5545 0 19.1229 0H5.00405C4.79685 0 4.59814 0.0771774 4.45158 0.214485L0.229032 4.17139C0.0824222 4.30879 0 4.49519 0 4.6896V24.2673C0 24.6719 0.349904 25 0.7815 25H19.1229C19.5545 25 19.9044 24.6719 19.9044 24.2673V18.1619C21.9702 17.9653 23.8424 16.8454 24.8948 15.1408C25.035 14.9138 25.035 14.6338 24.8949 14.4067ZM4.22255 2.50099V3.95632H2.6695L4.22255 2.50099ZM1.56305 23.5346V5.42171H5.00405C5.43565 5.42171 5.78555 5.09366 5.78555 4.68901V1.46539H18.3414V11.4155C16.3781 11.677 14.6163 12.7731 13.6077 14.4067C13.4675 14.6338 13.4675 14.9138 13.6077 15.1408C14.6163 16.7745 16.3781 17.8706 18.3414 18.1321V23.5346H1.56305V23.5346ZM19.2513 16.7277C17.6444 16.7277 16.1362 15.9888 15.2124 14.7738C16.1362 13.5588 17.6444 12.8199 19.2513 12.8199C20.8581 12.8199 22.3664 13.5588 23.2901 14.7738C22.3664 15.9887 20.8581 16.7277 19.2513 16.7277Z" fill="#00A2FF"/>
<path d="M19.2514 14.041C18.8426 14.041 18.451 14.378 18.4699 14.7737C18.4889 15.1707 18.8133 15.5064 19.2514 15.5064C19.6602 15.5064 20.0518 15.1694 20.0329 14.7737C20.0139 14.3767 19.6895 14.041 19.2514 14.041Z" fill="#00A2FF"/>
</svg>
