<svg width="81" height="86" viewBox="0 0 81 86" fill="none" xmlns="http://www.w3.org/2000/svg">
<path d="M35.8652 26.3295C32.4911 24.3555 28.35 26.9331 28.35 31.0071V54.5482C28.35 58.6223 32.4911 61.1996 35.8652 59.2259L59.1843 45.5841C60.1506 45.019 60.75 43.944 60.75 42.7775C60.75 41.611 60.1506 40.5364 59.1843 39.9709L35.8652 26.3295ZM40.5 0C18.1325 0 0 19.1521 0 42.7775C0 66.4027 18.1325 85.555 40.5 85.555C62.8673 85.555 81 66.4027 81 42.7775C81 19.1521 62.8673 0 40.5 0ZM6.075 42.7775C6.075 22.6959 21.4876 6.41663 40.5 6.41663C59.5123 6.41663 74.925 22.6959 74.925 42.7775C74.925 62.859 59.5123 79.1384 40.5 79.1384C21.4876 79.1384 6.075 62.859 6.075 42.7775Z" fill="#FCFCFC"/>
</svg>
