<svg width="18" height="22" viewBox="0 0 18 22" fill="none" xmlns="http://www.w3.org/2000/svg">
<path d="M3.16089 4.39197C3.16089 3.78557 3.63262 3.29398 4.21452 3.29398H12.6436C13.2255 3.29398 13.6972 3.78557 13.6972 4.39197V6.58796C13.6972 7.19436 13.2255 7.68595 12.6436 7.68595H4.21452C3.63262 7.68595 3.16089 7.19436 3.16089 6.58796V4.39197ZM4.74133 6.03896H12.1167V4.94097H4.74133V6.03896ZM0 2.74498C0 1.22897 1.17932 0 2.63407 0H14.7508C16.2056 0 17.3849 1.22897 17.3849 2.74498V18.3914C17.3849 18.8462 17.0311 19.2149 16.5947 19.2149H1.58044C1.58044 19.8213 2.05218 20.3129 2.63407 20.3129H16.5947C17.0311 20.3129 17.3849 20.6816 17.3849 21.1364C17.3849 21.5912 17.0311 21.9599 16.5947 21.9599H2.63407C1.17932 21.9599 0 20.7309 0 19.2149V2.74498ZM1.58044 17.5679H15.8044V2.74498C15.8044 2.13858 15.3327 1.64699 14.7508 1.64699H2.63407C2.05218 1.64699 1.58044 2.13858 1.58044 2.74498V17.5679Z" fill="#F0F0F0"/>
</svg>
