<svg width="36" height="36" viewBox="0 0 36 36" fill="none" xmlns="http://www.w3.org/2000/svg">
<path fill-rule="evenodd" clip-rule="evenodd" d="M18.5655 12.8296C18.3495 12.7328 17.9925 12.6736 17.358 12.7433C15.6848 12.9301 14.7255 13.3718 14.0063 13.9771C13.2338 14.6281 12.6098 15.5671 11.7668 17.0431C11.669 17.2141 11.5385 17.3642 11.3828 17.4848C11.227 17.6054 11.049 17.6941 10.859 17.746C10.6689 17.7978 10.4705 17.8116 10.2751 17.7868C10.0797 17.7619 9.89104 17.6988 9.72001 17.6011C9.54898 17.5033 9.39888 17.3728 9.27828 17.2171C9.15767 17.0613 9.06893 16.8833 9.01712 16.6933C8.9653 16.5032 8.95143 16.3048 8.97629 16.1094C9.00115 15.914 9.06426 15.7253 9.16201 15.5543C10.0013 14.0866 10.8495 12.7133 12.0743 11.6828C13.3523 10.6058 14.9168 9.99681 17.0265 9.76206C17.9085 9.66456 18.879 9.68406 19.788 10.0898C20.7435 10.5166 21.441 11.2808 21.9165 12.3023C22.557 13.6771 23.0333 14.4953 23.4143 14.9693C23.598 15.1973 23.7263 15.3031 23.799 15.3503C23.8568 15.3878 23.8815 15.3908 23.8905 15.3923H23.8913C23.9565 15.3998 24.168 15.3923 24.789 15.1171C25.059 14.9971 25.3553 14.8531 25.7168 14.6768L25.803 14.6348C26.2451 14.4166 26.6912 14.2066 27.141 14.0048C27.5042 13.8454 27.9157 13.8363 28.2855 13.9795C28.6554 14.1227 28.9535 14.4065 29.1146 14.7689C29.2757 15.1313 29.2868 15.5428 29.1453 15.9133C29.0039 16.2838 28.7214 16.5832 28.3598 16.7461C27.9429 16.9331 27.5296 17.1279 27.12 17.3303L27.0218 17.3783C26.676 17.5471 26.328 17.7173 26.0018 17.8613C25.3268 18.1598 24.4643 18.4838 23.529 18.3706C22.5015 18.2453 21.7178 17.6461 21.078 16.8511C20.4578 16.0808 19.8578 14.9873 19.197 13.5683C18.963 13.0666 18.7358 12.9053 18.5655 12.8296V12.8296Z" fill="#00A2FF"/>
<path fill-rule="evenodd" clip-rule="evenodd" d="M18.57 10.6929C18.9415 10.8352 19.2412 11.1193 19.4032 11.4826C19.5652 11.8459 19.5763 12.2587 19.434 12.6302L17.2118 18.4359L21.9398 24.5889C22.1091 24.809 22.214 25.0717 22.2428 25.3479L22.8668 31.3449C22.9012 31.7371 22.7801 32.127 22.5296 32.4307C22.2792 32.7344 21.9193 32.9274 21.5278 32.9682C21.1362 33.0089 20.7444 32.8941 20.4367 32.6485C20.1291 32.4029 19.9303 32.0462 19.8833 31.6554L19.3028 26.0807L14.3213 19.5984C14.1649 19.3949 14.0633 19.1547 14.0263 18.9008C13.9892 18.6468 14.018 18.3876 14.1098 18.1479L16.6328 11.5577C16.7032 11.3737 16.8091 11.2053 16.9446 11.0623C17.0801 10.9193 17.2424 10.8043 17.4223 10.724C17.6022 10.6437 17.7961 10.5996 17.993 10.5943C18.19 10.589 18.386 10.6225 18.57 10.6929V10.6929Z" fill="#00A2FF"/>
<path fill-rule="evenodd" clip-rule="evenodd" d="M13.824 21.7553L12.72 24.7253L8.37001 24.3803C7.97644 24.354 7.58837 24.4839 7.28983 24.7417C6.99129 24.9995 6.80632 25.3645 6.77495 25.7577C6.74359 26.1509 6.86837 26.5406 7.12227 26.8425C7.37617 27.1444 7.73875 27.3341 8.13151 27.3705L13.6125 27.8055C13.9378 27.8314 14.2626 27.7505 14.5378 27.5751C14.813 27.3997 15.0234 27.1394 15.1373 26.8335L15.981 24.5625L13.824 21.7553ZM17.523 20.4143L20.2965 12.9503C20.4089 12.6482 20.421 12.318 20.331 12.0085C20.241 11.699 20.0537 11.4267 19.7969 11.232C19.5401 11.0372 19.2273 10.9304 18.905 10.9273C18.5828 10.9242 18.268 11.025 18.0075 11.2148C18.2528 11.6768 18.3038 12.2378 18.1028 12.7643L15.9548 18.3743L17.5223 20.4143H17.523Z" fill="#00A2FF"/>
<path d="M26.25 6.375C26.25 7.27011 25.8944 8.12855 25.2615 8.76149C24.6285 9.39442 23.7701 9.75 22.875 9.75C21.9799 9.75 21.1215 9.39442 20.4885 8.76149C19.8556 8.12855 19.5 7.27011 19.5 6.375C19.5 5.47989 19.8556 4.62145 20.4885 3.98851C21.1215 3.35558 21.9799 3 22.875 3C23.7701 3 24.6285 3.35558 25.2615 3.98851C25.8944 4.62145 26.25 5.47989 26.25 6.375V6.375Z" fill="#00A2FF"/>
<path d="M21.3975 16.4791L17.5665 23.8681L15.09 18.8221L16.725 13.2129L19.248 13.7754L21.3975 16.4791V16.4791Z" fill="#00A2FF"/>
</svg>
