<svg width="145" height="163" viewBox="0 0 145 163" fill="none" xmlns="http://www.w3.org/2000/svg">
<path d="M5.70715 157V144.845H5.8229L14.5048 157H17.7203V138.44H14.0032V150.53H13.9003L5.23125 138.44H1.99V157H5.70715ZM32.9748 157H37.1035L30.6467 138.44H26.0807L19.6368 157H23.624L25.0389 152.498H31.56L32.9748 157ZM28.2544 141.99H28.3444L30.7239 149.591H25.8749L28.2544 141.99ZM39.0071 138.44V157H42.8915V151.148H46.3642C50.2743 151.148 52.9882 148.601 52.9882 144.794C52.9882 140.974 50.3643 138.44 46.5572 138.44H39.0071ZM42.8915 141.514H45.5282C47.7533 141.514 49.0395 142.697 49.0395 144.807C49.0395 146.929 47.7405 148.112 45.5153 148.112H42.8915V141.514ZM63.6637 138.118C58.1588 138.118 54.7117 141.81 54.7117 147.726C54.7117 153.63 58.1588 157.322 63.6637 157.322C69.1559 157.322 72.6158 153.63 72.6158 147.726C72.6158 141.81 69.1559 138.118 63.6637 138.118ZM63.6637 141.36C66.6992 141.36 68.6414 143.829 68.6414 147.726C68.6414 151.611 66.6992 154.067 63.6637 154.067C60.6154 154.067 58.6733 151.611 58.6733 147.726C58.6733 143.829 60.6283 141.36 63.6637 141.36ZM79.0082 141.475H82.3138C84.2431 141.475 85.4521 142.633 85.4521 144.434C85.4521 146.273 84.3074 147.392 82.3524 147.392H79.0082V141.475ZM79.0082 150.209H82.1208L85.5807 157H89.9796L86.0695 149.63C88.2046 148.794 89.4394 146.736 89.4394 144.357C89.4394 140.691 86.9956 138.44 82.7254 138.44H75.1239V157H79.0082V150.209ZM100.372 138.118C94.8672 138.118 91.4201 141.81 91.4201 147.726C91.4201 153.63 94.8672 157.322 100.372 157.322C105.864 157.322 109.324 153.63 109.324 147.726C109.324 141.81 105.864 138.118 100.372 138.118ZM100.372 141.36C103.408 141.36 105.35 143.829 105.35 147.726C105.35 151.611 103.408 154.067 100.372 154.067C97.3238 154.067 95.3817 151.611 95.3817 147.726C95.3817 143.829 97.3367 141.36 100.372 141.36ZM128.424 149.206V147.109H120.604V149.939H124.643L124.63 150.235C124.553 152.537 122.791 154.093 120.257 154.093C117.17 154.093 115.215 151.637 115.215 147.611C115.215 143.662 117.054 141.334 120.115 141.334C122.212 141.334 123.794 142.492 124.36 144.434H128.257C127.704 140.678 124.437 138.118 120.103 138.118C114.649 138.118 111.253 141.72 111.253 147.662C111.253 153.694 114.649 157.322 120.193 157.322C125.363 157.322 128.424 154.26 128.424 149.206ZM143.293 153.784H134.881V149.103H142.817V146.119H134.881V141.643H143.293V138.44H130.997V157H143.293V153.784Z" fill="white"/>
<g filter="url(#filter0_d_5_14875)">
<g filter="url(#filter1_d_5_14875)">
<path d="M32.3681 87.2073C38.1806 87.2073 42.8925 82.4981 42.8925 76.689C42.8925 70.8799 38.1806 66.1707 32.3681 66.1707C26.5557 66.1707 21.8438 70.8799 21.8438 76.689C21.8438 82.4981 26.5557 87.2073 32.3681 87.2073Z" fill="white"/>
<path d="M58.3584 87.2073C64.1708 87.2073 68.8828 82.4981 68.8828 76.689C68.8828 70.8799 64.1708 66.1707 58.3584 66.1707C52.5459 66.1707 47.834 70.8799 47.834 76.689C47.834 82.4981 52.5459 87.2073 58.3584 87.2073Z" fill="white"/>
<path d="M58.3584 111.629C64.1708 111.629 68.8828 106.92 68.8828 101.111C68.8828 95.3018 64.1708 90.5925 58.3584 90.5925C52.5459 90.5925 47.834 95.3018 47.834 101.111C47.834 106.92 52.5459 111.629 58.3584 111.629Z" fill="white"/>
<path d="M55.6133 8V48.6099H55.4302L44.9059 38.0001L34.2899 48.6099H34.1069V8H18V62.6039H72.5438V8H55.6133Z" fill="white"/>
<path d="M126.996 8H72.269V15.4086H119.766V62.6039H126.996V15.4086V8Z" fill="white"/>
<path d="M71.9946 30.9582H103.934V63.3364H111.621V30.9582V23.3667H71.9946V30.9582Z" fill="white"/>
<path d="M96.3382 38.8225H72.3608V46.5055H88.5593V63.4263H96.3382V41.292V38.8225Z" fill="white"/>
<path d="M32.3677 90.6836C30.3544 90.6836 28.524 91.2324 26.9683 92.2385C30.7204 98.0007 35.5708 103.031 41.1533 106.964C42.2515 105.318 42.8921 103.306 42.8921 101.202C42.8921 95.3482 38.1333 90.6836 32.3677 90.6836Z" fill="white"/>
<path d="M72.5435 62.6033V117.024C102.652 117.024 126.996 92.6034 126.996 62.6033H72.5435ZM100.456 88.579V97.5424H92.311V88.579C89.474 87.1156 87.4606 84.0973 87.4606 80.6216C87.4606 75.6826 91.4874 71.6582 96.4293 71.6582C101.371 71.6582 105.398 75.6826 105.398 80.6216C105.306 84.0973 103.385 87.1156 100.456 88.579Z" fill="white"/>
</g>
</g>
<defs>
<filter id="filter0_d_5_14875" x="2" y="0" width="140.996" height="141.024" filterUnits="userSpaceOnUse" color-interpolation-filters="sRGB">
<feFlood flood-opacity="0" result="BackgroundImageFix"/>
<feColorMatrix in="SourceAlpha" type="matrix" values="0 0 0 0 0 0 0 0 0 0 0 0 0 0 0 0 0 0 127 0" result="hardAlpha"/>
<feOffset dy="8"/>
<feGaussianBlur stdDeviation="8"/>
<feComposite in2="hardAlpha" operator="out"/>
<feColorMatrix type="matrix" values="0 0 0 0 0.4125 0 0 0 0 0.4125 0 0 0 0 0.4125 0 0 0 0.15 0"/>
<feBlend mode="normal" in2="BackgroundImageFix" result="effect1_dropShadow_5_14875"/>
<feBlend mode="normal" in="SourceGraphic" in2="effect1_dropShadow_5_14875" result="shape"/>
</filter>
<filter id="filter1_d_5_14875" x="12.878" y="2.87803" width="123.63" height="123.658" filterUnits="userSpaceOnUse" color-interpolation-filters="sRGB">
<feFlood flood-opacity="0" result="BackgroundImageFix"/>
<feColorMatrix in="SourceAlpha" type="matrix" values="0 0 0 0 0 0 0 0 0 0 0 0 0 0 0 0 0 0 127 0" result="hardAlpha"/>
<feOffset dx="2.19513" dy="2.19513"/>
<feGaussianBlur stdDeviation="3.65855"/>
<feComposite in2="hardAlpha" operator="out"/>
<feColorMatrix type="matrix" values="0 0 0 0 0 0 0 0 0 0 0 0 0 0 0 0 0 0 0.1 0"/>
<feBlend mode="normal" in2="BackgroundImageFix" result="effect1_dropShadow_5_14875"/>
<feBlend mode="normal" in="SourceGraphic" in2="effect1_dropShadow_5_14875" result="shape"/>
</filter>
</defs>
</svg>
