<svg width="23" height="22" viewBox="0 0 23 22" fill="none" xmlns="http://www.w3.org/2000/svg">
<path d="M5.5 12H1.5C1.23478 12 0.98043 12.1054 0.792893 12.2929C0.605357 12.4804 0.5 12.7348 0.5 13V21C0.5 21.2652 0.605357 21.5196 0.792893 21.7071C0.98043 21.8946 1.23478 22 1.5 22H5.5C5.76522 22 6.01957 21.8946 6.20711 21.7071C6.39464 21.5196 6.5 21.2652 6.5 21V13C6.5 12.7348 6.39464 12.4804 6.20711 12.2929C6.01957 12.1054 5.76522 12 5.5 12ZM4.5 20H2.5V14H4.5V20ZM21.5 8H17.5C17.2348 8 16.9804 8.10536 16.7929 8.29289C16.6054 8.48043 16.5 8.73478 16.5 9V21C16.5 21.2652 16.6054 21.5196 16.7929 21.7071C16.9804 21.8946 17.2348 22 17.5 22H21.5C21.7652 22 22.0196 21.8946 22.2071 21.7071C22.3946 21.5196 22.5 21.2652 22.5 21V9C22.5 8.73478 22.3946 8.48043 22.2071 8.29289C22.0196 8.10536 21.7652 8 21.5 8ZM20.5 20H18.5V10H20.5V20ZM13.5 0H9.5C9.23478 0 8.98043 0.105357 8.79289 0.292893C8.60536 0.48043 8.5 0.734784 8.5 1V21C8.5 21.2652 8.60536 21.5196 8.79289 21.7071C8.98043 21.8946 9.23478 22 9.5 22H13.5C13.7652 22 14.0196 21.8946 14.2071 21.7071C14.3946 21.5196 14.5 21.2652 14.5 21V1C14.5 0.734784 14.3946 0.48043 14.2071 0.292893C14.0196 0.105357 13.7652 0 13.5 0ZM12.5 20H10.5V2H12.5V20Z" fill="#BDBDBD"/>
</svg>
