<svg width="20" height="21" viewBox="0 0 20 21" fill="none" xmlns="http://www.w3.org/2000/svg">
<path d="M7 5.28693H9V10.2869H14V12.2869H7V5.28693Z" fill="#40BFFF"/>
<path fill-rule="evenodd" clip-rule="evenodd" d="M20 10.2869C20 15.8098 15.5228 20.2869 10 20.2869C4.47715 20.2869 0 15.8098 0 10.2869C0 4.76408 4.47715 0.286926 10 0.286926C15.5228 0.286926 20 4.76408 20 10.2869ZM18 10.2869C18 14.7052 14.4183 18.2869 10 18.2869C5.58172 18.2869 2 14.7052 2 10.2869C2 5.86865 5.58172 2.28693 10 2.28693C14.4183 2.28693 18 5.86865 18 10.2869Z" fill="#40BFFF"/>
</svg>
