<svg width="22" height="22" viewBox="0 0 22 22" fill="none" xmlns="http://www.w3.org/2000/svg">
<path d="M21.9599 19.2896C21.9599 17.7957 20.7314 16.5847 19.216 16.5847H2.74386C1.22847 16.5847 0 17.7957 0 19.2896C0 20.7836 1.22847 21.9946 2.74386 21.9946H19.216C20.7314 21.9946 21.9599 20.7836 21.9599 19.2896ZM17.0799 11.4721C17.0799 9.97825 15.8515 8.7672 14.336 8.7672H2.74386C1.22847 8.7672 0 9.97825 0 11.4721C0 12.9661 1.22847 14.1771 2.74386 14.1771H14.336C15.8515 14.1771 17.0799 12.9661 17.0799 11.4721ZM12.1999 3.65467C12.1999 2.16076 10.9715 0.949707 9.45604 0.949707H2.74386C1.22847 0.949707 0 2.16076 0 3.65467C0 5.14856 1.22847 6.35961 2.74386 6.35961H9.45604C10.9715 6.35961 12.1999 5.14856 12.1999 3.65467ZM20.1299 19.2896C20.1299 19.7871 19.7207 20.1905 19.216 20.1905H2.74386C2.23915 20.1905 1.82999 19.7871 1.82999 19.2896C1.82999 18.792 2.23915 18.3888 2.74386 18.3888H19.216C19.7207 18.3888 20.1299 18.792 20.1299 19.2896ZM15.2499 11.4721C15.2499 11.9697 14.8407 12.373 14.336 12.373H2.74386C2.23915 12.373 1.82999 11.9697 1.82999 11.4721C1.82999 10.9746 2.23915 10.5713 2.74386 10.5713H14.336C14.8407 10.5713 15.2499 10.9746 15.2499 11.4721ZM10.3699 3.65467C10.3699 4.15222 9.96075 4.55558 9.45604 4.55558H2.74386C2.23915 4.55558 1.82999 4.15222 1.82999 3.65467C1.82999 3.1571 2.23915 2.75374 2.74386 2.75374H9.45604C9.96075 2.75374 10.3699 3.1571 10.3699 3.65467Z" fill="#F0F0F0"/>
</svg>
