<svg width="36" height="36" viewBox="0 0 36 36" fill="none" xmlns="http://www.w3.org/2000/svg">
<path fill-rule="evenodd" clip-rule="evenodd" d="M10.7504 25.8751C10.7504 25.5767 10.869 25.2905 11.0799 25.0796C11.2909 24.8686 11.5771 24.7501 11.8754 24.7501H32.1254C32.4238 24.7501 32.71 24.8686 32.9209 25.0796C33.1319 25.2905 33.2504 25.5767 33.2504 25.8751C33.2504 26.1734 33.1319 26.4596 32.9209 26.6706C32.71 26.8815 32.4238 27.0001 32.1254 27.0001H11.8754C11.5771 27.0001 11.2909 26.8815 11.0799 26.6706C10.869 26.4596 10.7504 26.1734 10.7504 25.8751ZM10.7504 16.8751C10.7504 16.5767 10.869 16.2905 11.0799 16.0796C11.2909 15.8686 11.5771 15.7501 11.8754 15.7501H32.1254C32.4238 15.7501 32.71 15.8686 32.9209 16.0796C33.1319 16.2905 33.2504 16.5767 33.2504 16.8751C33.2504 17.1734 33.1319 17.4596 32.9209 17.6706C32.71 17.8815 32.4238 18.0001 32.1254 18.0001H11.8754C11.5771 18.0001 11.2909 17.8815 11.0799 17.6706C10.869 17.4596 10.7504 17.1734 10.7504 16.8751ZM10.7504 7.87506C10.7504 7.57669 10.869 7.29054 11.0799 7.07956C11.2909 6.86858 11.5771 6.75006 11.8754 6.75006H32.1254C32.4238 6.75006 32.71 6.86858 32.9209 7.07956C33.1319 7.29054 33.2504 7.57669 33.2504 7.87506C33.2504 8.17343 33.1319 8.45957 32.9209 8.67055C32.71 8.88153 32.4238 9.00006 32.1254 9.00006H11.8754C11.5771 9.00006 11.2909 8.88153 11.0799 8.67055C10.869 8.45957 10.7504 8.17343 10.7504 7.87506ZM8.17194 4.82856C8.27671 4.93306 8.35983 5.05721 8.41655 5.19388C8.47326 5.33056 8.50245 5.47708 8.50245 5.62506C8.50245 5.77303 8.47326 5.91956 8.41655 6.05623C8.35983 6.19291 8.27671 6.31706 8.17194 6.42156L4.79694 9.79656C4.69244 9.90133 4.5683 9.98445 4.43162 10.0412C4.29494 10.0979 4.14842 10.1271 4.00044 10.1271C3.85247 10.1271 3.70595 10.0979 3.56927 10.0412C3.43259 9.98445 3.30845 9.90133 3.20394 9.79656L2.07894 8.67156C1.97435 8.56696 1.89138 8.44278 1.83477 8.30612C1.77816 8.16946 1.74902 8.02298 1.74902 7.87506C1.74902 7.72713 1.77816 7.58066 1.83477 7.444C1.89138 7.30733 1.97435 7.18316 2.07894 7.07856C2.18354 6.97396 2.30772 6.89099 2.44438 6.83438C2.58105 6.77777 2.72752 6.74864 2.87544 6.74864C3.02337 6.74864 3.16984 6.77777 3.30651 6.83438C3.44317 6.89099 3.56735 6.97396 3.67194 7.07856L4.00044 7.40931L6.57894 4.82856C6.68345 4.72379 6.80759 4.64067 6.94427 4.58395C7.08094 4.52724 7.22747 4.49805 7.37544 4.49805C7.52342 4.49805 7.66994 4.52724 7.80662 4.58395C7.9433 4.64067 8.06744 4.72379 8.17194 4.82856V4.82856ZM8.17194 13.8286C8.27671 13.9331 8.35983 14.0572 8.41655 14.1939C8.47326 14.3306 8.50245 14.4771 8.50245 14.6251C8.50245 14.773 8.47326 14.9196 8.41655 15.0562C8.35983 15.1929 8.27671 15.3171 8.17194 15.4216L4.79694 18.7966C4.69244 18.9013 4.5683 18.9844 4.43162 19.0412C4.29494 19.0979 4.14842 19.1271 4.00044 19.1271C3.85247 19.1271 3.70595 19.0979 3.56927 19.0412C3.43259 18.9844 3.30845 18.9013 3.20394 18.7966L2.07894 17.6716C1.8677 17.4603 1.74902 17.1738 1.74902 16.8751C1.74902 16.5763 1.8677 16.2898 2.07894 16.0786C2.29019 15.8673 2.5767 15.7486 2.87544 15.7486C3.17419 15.7486 3.4607 15.8673 3.67194 16.0786L4.00044 16.4093L6.57894 13.8286C6.68345 13.7238 6.80759 13.6407 6.94427 13.584C7.08094 13.5272 7.22747 13.498 7.37544 13.498C7.52342 13.498 7.66994 13.5272 7.80662 13.584C7.9433 13.6407 8.06744 13.7238 8.17194 13.8286V13.8286ZM8.17194 22.8286C8.27671 22.9331 8.35983 23.0572 8.41655 23.1939C8.47326 23.3306 8.50245 23.4771 8.50245 23.6251C8.50245 23.773 8.47326 23.9196 8.41655 24.0562C8.35983 24.1929 8.27671 24.3171 8.17194 24.4216L4.79694 27.7966C4.69244 27.9013 4.5683 27.9844 4.43162 28.0412C4.29494 28.0979 4.14842 28.1271 4.00044 28.1271C3.85247 28.1271 3.70595 28.0979 3.56927 28.0412C3.43259 27.9844 3.30845 27.9013 3.20394 27.7966L2.07894 26.6716C1.8677 26.4603 1.74902 26.1738 1.74902 25.8751C1.74902 25.5763 1.8677 25.2898 2.07894 25.0786C2.29019 24.8673 2.5767 24.7486 2.87544 24.7486C3.17419 24.7486 3.4607 24.8673 3.67194 25.0786L4.00044 25.4093L6.57894 22.8286C6.68345 22.7238 6.80759 22.6407 6.94427 22.584C7.08094 22.5272 7.22747 22.498 7.37544 22.498C7.52342 22.498 7.66994 22.5272 7.80662 22.584C7.9433 22.6407 8.06744 22.7238 8.17194 22.8286V22.8286Z" fill="#00A2FF"/>
</svg>
