<svg width="17" height="17" viewBox="0 0 17 17" fill="none" xmlns="http://www.w3.org/2000/svg">
<path d="M7.15 2.90244H10.35C10.35 1.98645 9.63368 1.2439 8.75 1.2439C7.86632 1.2439 7.15 1.98645 7.15 2.90244ZM5.95 2.90244C5.95 1.29946 7.2036 0 8.75 0C10.2964 0 11.55 1.29946 11.55 2.90244H16.15C16.4814 2.90244 16.75 3.1809 16.75 3.52439C16.75 3.86788 16.4814 4.14634 16.15 4.14634H15.0947L14.1571 14.1898C14.0083 15.7838 12.716 17 11.171 17H6.32895C4.78403 17 3.49172 15.7838 3.3429 14.1898L2.40526 4.14634H1.35C1.01863 4.14634 0.75 3.86788 0.75 3.52439C0.75 3.1809 1.01863 2.90244 1.35 2.90244H5.95ZM7.55 6.84146C7.55 6.49797 7.28136 6.21951 6.95 6.21951C6.61863 6.21951 6.35 6.49797 6.35 6.84146V13.061C6.35 13.4045 6.61863 13.6829 6.95 13.6829C7.28136 13.6829 7.55 13.4045 7.55 13.061V6.84146ZM10.55 6.21951C10.8814 6.21951 11.15 6.49797 11.15 6.84146V13.061C11.15 13.4045 10.8814 13.6829 10.55 13.6829C10.2186 13.6829 9.95 13.4045 9.95 13.061V6.84146C9.95 6.49797 10.2186 6.21951 10.55 6.21951ZM4.53733 14.0699C4.62662 15.0263 5.402 15.7561 6.32895 15.7561H11.171C12.098 15.7561 12.8734 15.0263 12.9626 14.0699L13.8891 4.14634H3.61086L4.53733 14.0699Z" fill="#FCFCFC"/>
</svg>
