<svg width="33" height="32" viewBox="0 0 33 32" fill="none" xmlns="http://www.w3.org/2000/svg">
<g clip-path="url(#clip0_414_6962)">
<path fill-rule="evenodd" clip-rule="evenodd" d="M32.0167 7.93099C32.238 7.20299 32.0167 6.66699 30.9567 6.66699H27.4567C26.566 6.66699 26.1553 7.12966 25.9327 7.64033C25.9327 7.64033 24.1527 11.9017 21.6313 14.6697C20.8153 15.4723 20.4447 15.727 19.9993 15.727C19.7767 15.727 19.442 15.4723 19.442 14.743V7.93099C19.442 7.05633 19.1967 6.66699 18.4553 6.66699H12.9513C12.3953 6.66699 12.0607 7.07233 12.0607 7.45766C12.0607 8.28566 13.322 8.47766 13.4513 10.8083V15.8723C13.4513 16.983 13.2473 17.1843 12.802 17.1843C11.6153 17.1843 8.72867 12.903 7.01533 8.00433C6.68333 7.05099 6.34733 6.66699 5.45267 6.66699H1.95C0.95 6.66699 0.75 7.12966 0.75 7.64033C0.75 8.54966 1.93667 13.067 6.27667 19.0417C9.17 23.1217 13.2433 25.3337 16.954 25.3337C19.1793 25.3337 19.454 24.843 19.454 23.9963V20.9123C19.454 19.9297 19.6647 19.7337 20.37 19.7337C20.89 19.7337 21.7793 19.9897 23.8567 21.9563C26.23 24.2883 26.6207 25.3337 27.9567 25.3337H31.4567C32.4567 25.3337 32.958 24.843 32.67 23.8723C32.3527 22.907 31.2193 21.5057 29.7167 19.843C28.9007 18.8963 27.6767 17.8763 27.3047 17.3657C26.786 16.711 26.934 16.419 27.3047 15.8363C27.3047 15.8363 31.5713 9.93499 32.0153 7.93099H32.0167Z" fill="#05B9F0"/>
</g>
<defs>
<clipPath id="clip0_414_6962">
<rect width="32" height="32" fill="white" transform="translate(0.75)"/>
</clipPath>
</defs>
</svg>
