<svg width="36" height="35" viewBox="0 0 36 35" fill="none" xmlns="http://www.w3.org/2000/svg">
<path d="M33.2697 0H2.7352C1.50028 0 0.5 1.00028 0.5 2.23273V32.7673C0.5 33.9997 1.50028 35 2.7352 35H33.2673C34.4997 35 35.5 33.9997 35.5 32.7673V2.23273C35.5025 0.997813 34.5022 0 33.2697 0ZM29.5329 21.327C30.1726 21.979 31.5606 23.0732 31.3087 24.1871C31.0765 25.2096 29.5502 24.8366 28.0683 24.8959C26.3764 24.9675 25.3737 25.0046 24.3561 24.1871C23.877 23.7993 23.5954 23.3399 23.136 22.8262C22.7186 22.3619 22.1925 21.5295 21.4763 21.5616C20.1895 21.6259 20.5921 23.419 20.1352 24.6415C12.9825 25.7678 10.1101 21.3492 7.57607 17.0616C6.34856 14.9845 4.57522 10.524 4.57522 10.524L9.63344 10.5067C9.63344 10.5067 11.2561 13.4581 11.6859 14.2188C12.0514 14.8659 12.454 15.3796 12.8689 15.9576C13.2172 16.4367 13.7679 17.3753 14.3706 17.2987C15.3511 17.1727 15.5289 13.3692 14.9214 12.0948C14.6793 11.5786 14.0989 11.3983 13.4987 11.2229C13.7013 9.94355 19.1719 9.67681 20.0561 10.6697C21.3405 12.1121 19.167 16.128 20.9255 17.2987C23.3954 16.0045 25.5046 10.5857 25.5046 10.5857L31.4272 10.6228C31.4272 10.6228 30.5011 13.552 29.5304 14.8511C28.9648 15.6118 27.0878 17.3061 27.1618 18.5633C27.2211 19.5586 28.7475 20.5268 29.5329 21.327Z" fill="#4D76A1"/>
</svg>
