<svg width="33" height="32" viewBox="0 0 33 32" fill="none" xmlns="http://www.w3.org/2000/svg">
<path d="M22.5633 18.667C22.67 17.787 22.75 16.907 22.75 16.0003C22.75 15.0937 22.67 14.2137 22.5633 13.3337H27.07C27.2833 14.187 27.4167 15.0803 27.4167 16.0003C27.4167 16.9203 27.2833 17.8137 27.07 18.667H22.5633ZM20.2033 26.0803C21.0033 24.6003 21.6167 23.0003 22.0433 21.3337H25.9767C24.6849 23.558 22.6355 25.243 20.2033 26.0803ZM19.87 18.667H13.63C13.4967 17.787 13.4167 16.907 13.4167 16.0003C13.4167 15.0937 13.4967 14.2003 13.63 13.3337H19.87C19.99 14.2003 20.0833 15.0937 20.0833 16.0003C20.0833 16.907 19.99 17.787 19.87 18.667ZM16.75 26.6137C15.6433 25.0137 14.75 23.2403 14.2033 21.3337H19.2967C18.75 23.2403 17.8567 25.0137 16.75 26.6137ZM11.4167 10.667H7.52332C8.8018 8.43661 10.8497 6.74897 13.2833 5.92033C12.4833 7.40033 11.8833 9.00033 11.4167 10.667ZM7.52332 21.3337H11.4167C11.8833 23.0003 12.4833 24.6003 13.2833 26.0803C10.8548 25.2425 8.80978 23.5573 7.52332 21.3337ZM6.42999 18.667C6.21666 17.8137 6.08332 16.9203 6.08332 16.0003C6.08332 15.0803 6.21666 14.187 6.42999 13.3337H10.9367C10.83 14.2137 10.75 15.0937 10.75 16.0003C10.75 16.907 10.83 17.787 10.9367 18.667H6.42999ZM16.75 5.37366C17.8567 6.97366 18.75 8.76033 19.2967 10.667H14.2033C14.75 8.76033 15.6433 6.97366 16.75 5.37366ZM25.9767 10.667H22.0433C21.626 9.0156 21.0081 7.42152 20.2033 5.92033C22.6567 6.76033 24.6967 8.45366 25.9767 10.667ZM16.75 2.66699C9.37666 2.66699 3.41666 8.66699 3.41666 16.0003C3.41666 19.5365 4.82141 22.9279 7.3219 25.4284C8.56001 26.6665 10.0299 27.6487 11.6475 28.3187C13.2652 28.9888 14.999 29.3337 16.75 29.3337C20.2862 29.3337 23.6776 27.9289 26.1781 25.4284C28.6786 22.9279 30.0833 19.5365 30.0833 16.0003C30.0833 14.2494 29.7384 12.5156 29.0684 10.8979C28.3983 9.2802 27.4162 7.81035 26.1781 6.57224C24.94 5.33412 23.4701 4.35199 21.8524 3.68193C20.2348 3.01187 18.5009 2.66699 16.75 2.66699Z" fill="#05B9F0"/>
</svg>
