<svg width="77" height="148" viewBox="0 0 77 148" fill="none" xmlns="http://www.w3.org/2000/svg">
<circle cx="44.5" cy="116" r="32" fill="white" fill-opacity="0.72"/>
<circle cx="44.5" cy="116" r="23.5" fill="white" stroke="white"/>
<path d="M57.6645 109.266C58.5733 108.272 58.5733 106.662 57.6645 105.668C56.7561 104.675 55.2829 104.675 54.374 105.668L40.4106 120.936L34.6254 114.61C33.717 113.617 32.2438 113.617 31.3354 114.61C30.4266 115.604 30.4266 117.214 31.3354 118.208L38.7656 126.332C39.6745 127.325 41.1473 127.325 42.0561 126.332L57.6645 109.266Z" fill="#05B9F0"/>
<circle cx="4.5" cy="74.5" r="4.5" fill="white"/>
<circle cx="8" cy="32.6538" r="3.5" fill="white"/>
<circle cx="74.5" cy="74.5" r="2" fill="white"/>
<circle cx="42.5" cy="20.3459" r="2" fill="white" fill-opacity="0.71"/>
<circle cx="58.3462" cy="2.84595" r="2" fill="white" fill-opacity="0.47"/>
<circle cx="30.654" cy="52.4228" r="6.92303" fill="white"/>
<circle cx="68.5002" cy="37.8269" r="5.1731" fill="white" fill-opacity="0.71"/>
</svg>
